<?xml version="1.0" encoding="UTF-8" standalone="no"?><!DOCTYPE svg PUBLIC "-//W3C//DTD SVG 1.1//EN" "http://www.w3.org/Graphics/SVG/1.1/DTD/svg11.dtd"><svg width="100%" height="100%" viewBox="0 0 3505 2913" version="1.1" xmlns="http://www.w3.org/2000/svg" xmlns:xlink="http://www.w3.org/1999/xlink" xml:space="preserve" xmlns:serif="http://www.serif.com/" style="fill-rule:evenodd;clip-rule:evenodd;stroke-miterlimit:10;"><path d="M3050.554,2723.325c8.679,-8.679 15.625,-41.667 -24.304,-39.929l0,6.946c0,15.625 -24.304,48.612 -36.458,78.125l24.304,10.417c10.417,-24.304 29.512,-48.613 36.458,-55.554l0,-0.004Z" style="fill:#a9a9a9;fill-rule:nonzero;stroke:#000;stroke-width:5.21px;"/><path d="M2995,2813.604c-6.946,3.471 -10.417,32.988 -10.417,38.196c0,3.471 5.208,19.096 19.096,32.988c3.471,-22.571 3.471,-52.083 5.208,-60.762c0,-1.738 1.738,-5.208 1.738,-10.417c-6.946,-1.738 -13.887,-1.738 -15.625,0l0,-0.004Z" style="fill:#a9a9a9;fill-rule:nonzero;stroke:#000;stroke-width:5.21px;"/><path d="M3453.333,2502.842c-8.679,-1.737 3.471,-46.875 0,-55.554c-3.471,-8.679 -13.887,-43.404 -1.738,-43.404c10.417,0 -1.738,-24.304 13.887,-26.042c-3.471,-8.679 -6.946,-17.362 -8.679,-19.096c-6.946,-6.946 -29.513,6.946 -38.196,-17.363c-8.679,-22.571 0,-26.042 -13.887,-45.137c-13.887,-19.096 -19.096,-36.458 -36.458,-29.512c-6.946,3.471 -29.512,3.471 -52.083,1.737c-24.304,22.571 -76.388,38.196 -93.75,31.25c-20.833,-6.946 -59.029,1.738 -88.542,1.738c-29.512,0 -36.458,-20.833 -59.029,-19.096c-22.571,1.738 -22.571,-20.833 -45.137,-20.833c-22.571,0 -5.208,-12.154 -74.654,-20.833c-69.446,-8.679 -130.208,27.779 -152.779,48.613c-22.571,19.096 -102.429,0 -109.375,6.946c-6.946,5.208 1.738,29.512 -26.042,39.929c-26.042,10.417 -85.071,0 -105.904,8.679c-20.833,8.679 -27.779,39.929 -10.417,38.196c17.363,-1.738 26.042,6.946 20.833,13.887c-5.208,6.946 13.887,29.512 5.208,38.196c-10.417,8.679 -10.417,26.042 1.738,36.458c12.154,8.679 13.887,26.042 0,27.779c-13.887,1.737 24.304,19.096 26.042,26.042c0,6.946 32.988,12.154 32.988,20.833c0,8.679 10.417,12.154 26.042,6.946c15.625,-5.208 20.833,17.363 31.25,32.988c10.417,15.625 64.238,5.208 64.238,-12.154c0,-17.363 15.625,-20.833 41.667,-19.096c24.304,1.738 57.292,36.458 67.708,41.667c12.154,5.208 36.458,-8.679 52.083,-8.679c15.625,0 38.196,-26.042 46.875,-31.25c8.679,-5.208 24.304,17.363 38.196,10.417c13.888,-6.946 29.513,-15.625 38.196,-10.417c8.679,5.208 -20.833,29.512 -13.887,41.667c3.471,5.208 1.738,10.417 1.738,17.363c31.25,-5.208 27.779,-26.042 29.512,-36.458c1.738,-10.417 10.417,-20.833 19.096,-12.154c10.417,8.679 24.304,10.417 45.137,0c22.571,-10.417 24.304,-15.625 31.25,-6.946c8.679,10.417 26.042,1.738 57.292,1.738c31.25,0 38.196,-22.571 67.708,-20.833c29.512,1.738 55.554,-8.679 55.554,-8.679l19.096,5.208c6.946,-6.946 6.946,-15.625 22.571,-17.363c24.304,-3.471 32.987,15.625 45.137,8.679c12.154,-6.946 50.346,36.458 53.821,8.679c1.738,0 -15.625,-32.988 -24.304,-34.721l0,-0.013Zm-836.804,-197.917c17.363,-6.946 57.292,1.738 67.708,-6.946c10.417,-8.679 -26.042,-20.833 -38.196,-31.25c-6.946,-6.946 -10.417,-17.363 -12.154,-26.042c-5.208,3.471 -13.887,6.946 -20.833,3.471c-13.887,-6.946 -45.137,-1.738 -52.083,0c-5.208,1.738 5.208,22.571 5.208,34.721c0,12.154 -13.887,15.625 -13.887,24.304c0,6.946 -5.208,10.417 -12.154,17.363c10.417,6.946 19.096,15.625 29.512,15.625c20.833,-1.738 29.512,-24.304 46.875,-31.25l0.004,0.004Z" style="fill:#818181;fill-rule:nonzero;stroke:#000;stroke-width:5.21px;"/><path d="M1968.958,1455.967c3.471,8.679 6.946,41.667 -1.737,53.821c-6.946,12.154 -5.208,15.625 3.471,20.833c6.946,5.208 10.417,15.625 10.417,26.042c0,10.417 5.208,8.679 6.946,27.779c1.737,19.096 5.208,32.987 12.154,41.667c5.208,6.946 3.471,15.625 1.737,22.571c8.679,6.946 19.096,13.888 29.513,17.362c22.571,8.679 31.25,15.625 32.987,24.304c1.738,8.679 20.833,24.304 26.042,12.154c5.208,-12.154 19.096,-5.208 27.779,-5.208c8.679,0 12.154,12.154 13.888,19.096c1.738,6.946 24.304,3.471 32.988,8.679c8.679,5.208 12.154,24.304 22.571,31.25c12.154,6.946 20.833,-8.679 29.512,-3.471c8.679,5.208 29.512,10.417 43.404,5.208c13.887,-5.208 20.833,5.208 38.196,3.471c17.363,-1.737 38.196,5.208 43.404,10.417c3.471,3.471 17.363,5.208 29.512,6.946c3.471,-6.946 -3.471,-29.513 -1.738,-34.721c1.738,-5.208 39.929,-41.667 46.875,-48.612c6.946,-6.946 17.363,-8.679 22.571,-19.096c5.208,-10.417 -15.625,-43.404 -20.833,-50.346c-5.208,-6.946 -6.946,-34.721 -3.471,-45.138c3.471,-10.417 -17.363,-19.096 -17.363,-26.042c0,-6.946 19.096,-22.571 29.512,-26.042c10.417,-3.471 6.946,-36.458 -1.738,-45.138c-8.679,-8.679 -13.887,-22.571 -6.946,-39.929c5.208,-15.625 -32.988,-29.513 -38.196,-29.513c-1.738,0 -1.738,-1.737 -1.738,-1.737c-34.721,6.946 -123.262,-3.471 -130.208,-5.208c-5.208,-1.737 -15.625,-5.208 -26.042,-10.417c-5.208,6.946 -13.887,13.888 -27.779,13.888c-20.833,0 -22.571,-22.571 -24.304,-32.987c0,-10.417 -86.804,8.679 -109.375,32.987c-22.571,24.304 -76.388,13.888 -78.125,27.779c-1.737,8.679 -8.679,13.888 -13.888,12.154l0,5.208l0,-0.012Z" style="fill:#6d6d6d;fill-rule:nonzero;stroke:#000;stroke-width:5.21px;"/><path d="M2166.875,2195.55c-1.738,-10.417 29.512,-57.292 38.196,-57.292c6.946,0 8.679,-45.138 6.946,-69.446c-24.304,-17.362 -45.137,-24.304 -45.137,-24.304c0,0 -65.971,-3.471 -78.125,-8.679c-10.417,-5.208 -22.571,15.625 -32.987,6.946c-10.417,-8.679 -24.304,1.737 -22.571,13.888c1.737,12.154 22.571,19.096 22.571,34.721c0,17.363 41.667,41.667 41.667,52.083c0,6.946 26.042,24.304 41.667,46.875c8.679,5.208 17.363,12.154 26.042,19.096c1.738,-5.208 1.738,-10.417 1.738,-13.887l-0.004,0Z" style="fill:#bdbdbd;fill-rule:nonzero;stroke:#000;stroke-width:5.21px;"/><path d="M2097.429,2145.2c1.737,-8.679 -41.667,-34.721 -41.667,-52.083c0,-17.363 -20.833,-24.304 -22.571,-34.721c-1.737,-12.154 12.154,-22.571 22.571,-13.888c10.417,8.679 20.833,-12.154 32.987,-6.946c10.417,5.208 78.125,8.679 78.125,8.679c0,0 20.833,5.208 45.137,24.304c0,-5.208 -1.738,-8.679 -1.738,-10.417c-5.208,-13.888 0,-31.25 -15.625,-36.458c-8.679,-3.471 -12.154,-17.362 -13.887,-31.25c-6.946,1.737 -13.887,3.471 -17.363,5.208c-13.887,3.471 -41.667,1.737 -52.083,-12.154c-6.946,-10.417 -31.25,-24.304 -41.667,-31.25c-5.208,3.471 -22.571,19.096 -29.513,20.833c-8.679,1.737 -3.471,26.042 -12.154,26.042c-8.679,0 -15.625,15.625 -17.362,22.571c-1.737,6.946 -22.571,-5.208 -31.25,-1.737c-6.946,1.737 -26.042,5.208 -34.721,6.946c1.737,10.417 1.737,22.571 8.679,22.571c13.888,0 38.196,-1.737 38.196,17.363c0,19.096 32.987,59.029 45.138,72.917c12.154,13.887 38.196,10.417 39.929,22.571c1.737,12.154 20.833,22.571 43.404,24.304c5.208,0 10.957,-6.688 17.903,-1.48c-17.362,-27.779 -40.474,-36.716 -40.474,-41.924l0.004,0Z" style="fill:#d1d1d1;fill-rule:nonzero;stroke:#000;stroke-width:5.21px;"/><path d="M2262.358,2365.688c10.417,-1.738 5.208,-12.154 12.154,-19.096c6.946,-6.946 17.363,-24.304 17.363,-29.512c0,0 0,-1.738 1.738,-1.738c-15.625,-12.154 -26.042,-20.833 -29.512,-32.987c-3.471,-12.154 0,-36.458 5.208,-53.821c-8.679,-6.946 -34.721,-26.042 -43.404,-26.042c-8.679,0 -20.833,19.096 -24.304,36.458c19.096,10.417 27.779,19.096 13.887,32.988c-13.887,13.887 -17.363,64.238 -1.738,76.387c15.625,12.154 19.096,36.458 32.988,43.404c5.208,-10.417 8.679,-24.304 15.625,-26.042l-0.004,0Z" style="fill:#e6e6e6;fill-rule:nonzero;stroke:#000;stroke-width:5.21px;"/><path d="M2050.554,1799.717c-13.888,-15.625 -46.875,-15.625 -46.875,-15.625c0,0 -3.471,15.625 -8.679,24.304c-3.471,6.946 -27.779,6.946 -43.404,3.471c-5.208,5.208 -24.304,10.417 -27.779,19.096c-3.471,10.417 -27.779,5.208 -20.833,32.987c6.946,27.779 -12.154,19.096 -20.833,15.625c-6.946,-3.471 -41.667,1.737 -52.083,10.417c-10.417,8.679 -20.833,6.946 -29.513,1.737c-6.946,-5.208 -22.571,-6.946 -29.513,5.208c-6.946,12.154 -19.096,-8.679 -29.513,-8.679c-10.417,1.737 -5.208,22.571 -5.208,27.779c0,5.208 15.625,19.096 26.042,13.888c10.417,-5.208 22.571,1.737 31.25,6.946c8.679,5.208 26.042,-5.208 31.25,-10.417c5.208,-5.208 36.458,-5.208 39.929,-5.208c3.471,0 5.208,19.096 10.417,22.571c5.208,3.471 26.042,5.208 45.138,6.946c19.096,1.737 46.875,10.417 55.554,10.417c8.679,0 22.571,-15.625 43.404,-15.625c20.833,0 31.25,-12.154 34.721,-12.154c1.738,-6.946 3.471,-12.154 8.679,-12.154c8.679,-1.737 1.738,-15.625 8.679,-22.571c5.208,-6.946 -5.208,-20.833 5.208,-20.833c10.417,1.737 22.571,1.737 22.571,-13.888c0,-5.208 3.471,-10.417 6.946,-13.888c-12.154,-17.362 -19.096,-43.404 -19.096,-43.404c0,0 -22.571,8.679 -36.458,-6.946Z" style="fill:#818181;fill-rule:nonzero;stroke:#000;stroke-width:5.21px;"/><path d="M2373.467,1843.117c0,0 -2.387,-4.506 -12.15,-6.946c-13.888,-3.471 -27.779,-6.946 -31.25,-12.154c-8.679,-8.679 -41.667,-13.888 -46.875,-15.625c-5.208,-1.737 -36.458,31.25 -46.875,31.25c-10.417,0 -53.821,5.208 -53.821,17.362c0,12.154 -53.821,13.888 -67.708,0c-1.737,-1.737 -5.208,-5.208 -6.946,-8.679c-3.471,3.471 -6.946,8.679 -6.946,13.888c0,15.625 -12.154,13.888 -22.571,13.888c-10.417,-1.737 0,13.888 -5.208,20.833c-5.208,6.946 0,20.833 -8.679,22.571c-5.208,0 -6.946,5.208 -8.679,12.154c3.471,1.737 12.154,19.096 12.154,19.096l-1.737,1.737c12.154,6.946 34.721,22.571 41.667,31.25c10.417,13.888 38.196,15.625 52.083,12.154c13.887,-3.471 69.446,-22.571 69.446,-22.571c0,0 12.986,5.277 19.932,7.014c1.737,0 11.219,3.472 18.161,3.472c0,0 15.118,-3.721 27.268,-17.612c21.034,-19.006 42.929,-75.847 49.871,-81.055c6.946,-5.208 18.895,-12.92 27.578,-19.866c13.887,-5.208 11.703,-18.69 1.287,-22.161Z" style="fill:#a9a9a9;fill-rule:nonzero;stroke:#000;stroke-width:5.21px;"/><path d="M2166.875,1725.062c-8.679,-5.208 -31.25,-1.737 -32.988,-8.679c-1.737,-6.946 -3.471,-19.096 -13.888,-19.096c-10.417,0 -22.571,-6.946 -27.779,5.208c-5.208,12.154 -24.304,-3.471 -26.042,-12.154c-1.737,-8.679 -10.417,-15.625 -32.987,-24.304c-8.679,-3.471 -19.096,-10.417 -29.513,-17.362c0,1.737 -1.737,3.471 -3.471,5.208c-5.208,6.946 -20.833,-5.208 -26.042,1.737c-6.946,6.946 -29.513,8.679 -41.667,19.096c-12.154,12.154 -38.196,17.362 -52.083,20.833c-13.888,3.471 -1.737,17.362 3.471,27.779c5.208,10.417 5.208,36.458 17.362,43.404c12.154,6.946 48.612,32.987 52.083,39.929l0,3.471c15.625,3.471 39.929,5.208 43.404,-3.471c5.208,-8.679 8.679,-24.304 8.679,-24.304c0,0 32.987,0 46.875,15.625c13.887,15.625 38.196,5.208 38.196,5.208c0,0 1.737,5.208 3.471,10.417c3.471,-8.679 8.679,-15.625 13.888,-17.362c13.887,-1.737 34.721,-3.471 48.613,-24.304c6.946,-10.417 19.096,-19.096 29.512,-24.304c-8.679,-6.946 -12.154,-19.096 -19.096,-22.571l0,-0.004Z" style="fill:#595959;fill-rule:nonzero;stroke:#000;stroke-width:5.21px;"/><path d="M2302.292,1759.783c-17.363,1.737 -24.304,-8.679 -38.196,-3.471c-13.887,5.208 -34.721,0 -43.404,-5.208c-8.679,-5.208 -19.096,10.417 -29.513,3.471c-1.737,-1.737 -5.208,-3.471 -6.946,-6.946c-10.417,5.208 -22.571,13.888 -29.512,24.304c-13.887,20.833 -34.721,22.571 -48.613,24.304c-5.208,0 -10.417,8.679 -13.887,17.362c5.208,12.154 12.154,31.25 22.571,41.667c15.625,13.888 67.708,12.154 67.708,0c0,-12.154 43.404,-17.362 53.821,-17.362c10.417,0 41.667,-32.987 46.875,-31.25c5.208,1.737 38.196,6.946 46.875,15.625c3.471,3.471 17.363,8.679 31.25,12.154c-5.208,-5.208 -10.417,-12.154 -10.417,-17.362c0,-8.679 17.363,-32.987 22.571,-38.196c0,0 0,-1.737 1.738,-1.737c-12.154,-1.737 -26.042,-5.208 -29.513,-6.946c-5.208,-5.208 -27.779,-12.154 -43.404,-10.417l-0.004,0.008Z" style="fill:#959595;fill-rule:nonzero;stroke:#000;stroke-width:5.21px;"/><path d="M894.304,2494.158c19.096,-3.471 -5.208,-20.833 -10.417,-26.042c-5.208,-5.208 1.737,-27.779 12.154,-27.779c10.417,0 0,-13.888 -13.887,-27.779c-13.888,-15.625 0,-20.833 12.154,-20.833c12.154,0 -3.471,-22.571 8.679,-34.721c12.154,-13.887 -3.471,-36.458 -3.471,-48.613c0,-10.417 17.363,-15.625 32.988,-29.512c13.887,-15.625 -12.154,-8.679 -12.154,-20.833c0,-10.417 -17.363,-15.625 -31.25,-5.208c-12.154,8.679 -8.679,0 -19.096,0c-10.417,0 -31.25,3.471 -31.25,-6.946c0,-10.417 -8.679,-13.887 -17.363,-1.738c-3.471,3.471 -6.946,5.208 -13.887,5.208c-1.738,13.887 -3.471,27.779 1.737,34.721c10.417,15.625 -12.154,100.696 -31.25,123.262c-19.096,22.571 0,29.512 19.096,45.137c20.833,15.625 6.946,74.654 6.946,88.542c0,13.887 17.363,10.417 38.196,10.417c12.154,0 26.042,-5.208 39.929,-8.679c-3.471,-6.946 -6.946,-12.154 -6.946,-17.363c0,-10.417 0,-26.042 19.096,-31.25l-0.004,0.008Z" style="fill:#e6e6e6;fill-rule:nonzero;stroke:#000;stroke-width:5.21px;"/><path d="M1477.638,1622.633c8.679,-8.679 24.304,-5.208 34.721,5.208c8.679,8.679 22.571,12.154 36.458,26.042c3.471,3.471 6.946,6.946 10.417,10.417c1.737,-10.417 1.737,-29.513 5.208,-39.929c5.208,-10.417 -5.208,-24.304 3.471,-24.304c6.946,0 27.779,0 27.779,-13.888c0,-13.888 5.208,-8.679 10.417,-17.362c5.208,-6.946 -13.888,-22.571 -15.625,-27.779c-3.471,-5.208 13.888,-6.946 26.042,-24.304c3.471,-6.946 1.737,-20.833 -1.737,-34.721c-1.737,5.208 -5.208,8.679 -12.154,5.208c-10.417,-6.946 -27.779,-3.471 -50.346,1.737c-22.571,5.208 -29.513,26.042 -20.833,36.458c8.679,8.679 -20.833,13.888 -24.304,1.737c-1.737,-12.154 -24.304,-3.471 -22.571,12.154c1.737,15.625 -24.304,22.571 -22.571,41.667c1.737,19.096 -24.304,38.196 -39.929,48.612c-1.737,1.737 -5.208,3.471 -8.679,5.208c8.679,3.471 15.625,6.946 17.362,6.946c13.888,-3.471 38.196,-10.417 46.875,-19.096l0,-0.012Z" style="fill:#d1d1d1;fill-rule:nonzero;stroke:#000;stroke-width:5.21px;"/><path d="M1562.708,1711.175c-10.417,5.208 -19.096,17.362 -17.362,43.404c10.417,0 22.571,1.737 32.987,3.471c-1.737,-27.779 -13.888,-36.458 -15.625,-43.404c-1.737,0 0,-1.737 0,-3.471Z" style="fill:#595959;fill-rule:nonzero;stroke:#000;stroke-width:5.21px;"/><path d="M1385.625,1653.883c-2.996,1.917 11.408,36.569 17.362,19.096c3.015,-8.848 15.625,13.718 26.042,18.927c10.417,5.208 29.513,8.853 31.25,15.794c1.737,6.946 2.954,26.402 11.634,21.194c10.417,-5.208 24.599,-18.579 24.825,-15.986c0.751,8.647 2.287,29.423 12.704,27.685c10.417,-1.737 13.268,19.321 25.422,17.588l10.482,-3.606c-1.737,-26.042 6.946,-38.196 17.362,-43.404c1.737,-5.208 8.679,-8.679 10.417,-15.625c1.737,-6.946 -15.625,-22.571 -13.888,-32.987l0,-1.737c-3.471,-3.471 -6.946,-6.946 -10.417,-10.417c-13.888,-13.888 -27.779,-15.625 -36.458,-26.042c-8.679,-8.679 -24.304,-13.888 -34.721,-5.208c-8.679,8.679 -34.721,15.625 -46.875,15.625c-3.471,0 -4.914,1.014 -11.86,-4.195c-10.417,6.946 -29.724,16.357 -40.141,19.828c1.737,6.946 6.859,-1.746 6.859,3.463l0,0.008Z" style="fill:#bdbdbd;fill-rule:nonzero;stroke:#000;stroke-width:5.21px;"/><path d="M2672.083,2032.354c-10.417,-1.737 -24.304,-6.946 -19.096,-12.154l1.738,-1.737c-13.887,-12.154 -17.363,-48.612 -8.679,-59.029c12.154,-12.154 -17.363,-55.554 -31.25,-72.917c-6.946,-6.946 -23.932,-38.059 -36.087,-64.1c-12.154,3.471 -22.571,7.552 -24.304,11.027c-5.208,6.946 -20.505,13.935 -29.188,13.935c-8.679,0 -17.081,-1.827 -25.76,6.852c-6.946,6.946 -13.136,11.544 -18.345,8.073c-5.208,-5.208 -18.455,-10.651 -28.871,-10.651c-10.417,0 -47.145,-8.961 -54.086,-8.961c-5.208,0 -11.027,-0.282 -17.969,1.456c1.738,3.471 1.972,12.862 -3.236,18.071c-8.679,6.946 -26.042,17.362 -32.987,22.571c-6.946,5.208 -29.513,62.5 -45.138,78.125c-15.625,15.625 -29.512,19.096 -31.25,24.304c-1.737,5.208 17.363,20.833 17.363,29.513c0,8.679 5.208,19.096 17.363,19.096c12.154,0 -1.738,29.512 6.946,32.987c6.946,1.738 55.554,5.208 55.554,17.363c0,8.679 5.208,15.625 3.471,22.571c13.887,1.737 22.571,20.833 27.779,19.096c5.208,-1.737 46.875,6.946 53.821,6.946c6.946,-1.737 41.667,0 53.821,1.738c12.154,1.738 26.042,-5.208 36.458,-15.625c10.417,-10.417 46.875,-12.154 59.029,-10.417c12.154,1.738 36.458,5.208 39.929,12.154c1.738,3.471 15.625,10.417 31.25,15.625c1.738,-6.946 0,-17.363 0,-27.779c0,-15.625 10.417,-39.929 26.042,-41.667c15.625,-1.738 27.779,-1.738 26.042,-27.779l0,-1.737c-8.679,-6.946 -15.625,-12.154 -17.363,-12.154c-10.417,-6.946 -27.779,5.208 -32.987,5.208l-0.008,-0Z" style="fill:#959595;fill-rule:nonzero;stroke:#000;stroke-width:5.21px;"/><path d="M2692.917,1869.158c-5.208,-19.096 -18.998,-30.597 -29.415,-30.597c-10.417,0 -35.386,-28.206 -47.536,-26.473c-6.946,0 -22.853,5.119 -36.74,10.327c12.154,24.304 26.887,57.155 33.833,65.838c13.888,15.625 43.404,60.763 31.25,72.917c-8.679,8.679 -5.208,46.875 8.679,59.029c6.946,-8.679 27.779,-36.458 27.779,-45.138c0,-8.679 1.738,-27.779 19.096,-22.571c17.363,5.208 34.721,12.154 34.721,6.946c0,-5.208 0.708,-29.423 -6.238,-36.368c-5.208,-12.154 -28.487,-33.077 -35.429,-53.911Z" style="fill:#bdbdbd;fill-rule:nonzero;stroke:#000;stroke-width:5.21px;"/><path d="M2597.429,2105.271c-12.154,-1.737 -48.612,0 -59.029,10.417c-10.417,10.417 -24.304,17.363 -36.458,15.625c-12.154,-1.737 -46.875,-3.471 -53.821,-1.737c-6.946,1.737 -46.875,-6.946 -53.821,-6.946c-5.208,1.737 -15.625,-17.363 -27.779,-19.096c0,1.737 -1.738,3.471 -3.471,5.208c-10.417,6.946 -10.417,26.042 0,36.458c10.417,10.417 26.042,32.988 15.625,32.988c-10.417,0 -17.362,13.887 -17.362,20.833c0,6.946 -3.471,22.571 0,26.042c3.471,3.471 26.042,26.042 27.779,32.988c1.738,5.208 10.417,8.679 10.417,13.887c19.096,-1.738 59.029,-3.471 67.708,0c12.154,6.946 53.821,8.679 53.821,8.679c12.154,0 22.571,-5.208 19.096,-12.154c-1.738,-6.946 12.154,-10.417 24.304,-12.154c-1.738,-6.946 -3.471,-12.154 0,-13.887c5.208,-1.738 38.196,-6.946 52.083,0c6.946,3.471 13.887,0 20.833,-3.471c-1.738,-6.946 -3.471,-12.154 -6.946,-12.154c-8.679,-1.738 -20.833,-36.458 -10.417,-39.929c10.417,-1.738 24.304,-39.929 39.929,-45.137c6.946,-1.738 8.679,-6.946 10.417,-10.417c-13.887,-5.208 -27.779,-10.417 -31.25,-15.625c-6.946,-5.208 -29.512,-8.679 -41.667,-10.417l0.008,0Z" style="fill:#a9a9a9;fill-rule:nonzero;stroke:#000;stroke-width:5.21px;"/><path d="M2293.608,2315.342l27.779,0c1.738,0 3.471,0 5.208,-1.737c13.887,-3.471 17.363,-19.096 22.571,-15.625c5.208,3.471 41.667,-15.625 46.875,-22.571c0,0 0,-1.738 1.738,-1.738c0,-5.208 -8.679,-8.679 -10.417,-13.887c-1.738,-6.946 -24.304,-29.512 -27.779,-32.988c0,0 -1.738,-1.738 -1.738,-3.471l0,-5.208c-34.721,5.208 -86.804,15.625 -86.804,15.625c0,0 -1.738,-1.738 -3.471,-1.738c-5.208,17.363 -8.679,41.667 -5.208,53.821c5.208,8.679 17.363,17.363 31.25,29.512l-0.004,0.004Z" style="fill:#595959;fill-rule:nonzero;stroke:#000;stroke-width:5.21px;"/><path d="M3147.775,1886.521c6.946,-1.737 31.25,-27.779 38.196,-27.779c6.946,0 41.667,6.946 41.667,1.737c0,-5.208 10.417,-26.042 8.679,-31.25c-1.738,-5.208 -13.887,-13.888 -10.417,-19.096c3.471,-5.208 17.363,-5.208 17.363,-12.154c0,-6.946 -12.154,-10.417 -12.154,-15.625c0,-5.208 15.625,-12.154 13.887,-22.571c-1.738,-10.417 -13.887,-10.417 -29.512,-19.096c-13.887,-8.679 -29.512,-5.208 -41.667,-12.154c-13.887,-6.946 -41.667,-1.737 -41.667,-6.946c0,-5.208 -17.363,-19.096 -22.571,-27.779c-5.208,-8.679 -19.096,-3.471 -27.779,1.737c-8.679,5.208 -17.363,8.679 -26.042,1.737c-8.679,-6.946 -17.363,-15.625 -24.304,-12.154c-6.946,3.471 -22.571,1.737 -19.096,-10.417c3.471,-12.154 -13.887,-36.458 -22.571,-39.929c-6.946,-3.471 -31.25,1.737 -36.458,-8.679c-5.208,-10.417 -15.625,-20.833 -10.417,-29.513c5.208,-8.679 -1.737,-29.513 -6.946,-39.929c-5.208,-10.417 -32.988,-8.679 -41.667,-5.208c-8.679,3.471 -26.042,-3.471 -32.988,1.737c-6.946,5.208 -12.154,12.154 -22.571,12.154c-6.946,0 -10.417,0 -13.887,-5.208c-12.154,5.208 -32.988,6.946 -32.988,6.946c0,0 -29.512,24.304 -29.512,32.987c0,8.679 -1.738,24.304 -8.679,17.362c-6.946,-6.946 -38.196,-6.946 -46.875,-3.471c-6.946,5.208 -19.096,-19.096 -32.988,-10.417c-13.887,6.946 -31.25,-10.417 -32.988,-3.471c-1.738,6.946 -20.833,1.737 -34.721,-5.208c-13.887,-6.946 -36.458,3.471 -46.875,-6.946c-8.679,-10.417 -67.708,-10.417 -86.804,-10.417c-19.096,0 -24.304,10.417 -32.988,19.096c-8.679,8.679 -17.363,6.946 -26.042,6.946c0,6.946 1.738,13.888 3.471,17.362c5.208,6.946 26.042,39.929 20.833,50.346c-5.208,10.417 -15.625,10.417 -22.571,19.096c-6.946,8.679 -45.137,43.404 -46.875,48.612c-1.738,5.208 6.946,31.25 1.738,36.458c-5.208,5.208 -22.571,29.513 -22.571,38.196c0,8.679 12.154,22.571 22.571,26.042c3.471,1.737 6.946,3.471 8.679,5.208c6.946,-1.737 15.625,-1.737 19.096,-1.737c6.946,0 39.929,8.679 50.346,8.679c10.417,0 26.042,5.208 29.512,8.679c5.208,5.208 15.625,1.737 22.571,-6.946c6.946,-6.946 15.625,-3.471 26.042,-3.471c10.417,0 24.304,-6.946 27.779,-15.625c3.471,-8.679 48.613,-19.096 60.762,-20.833c12.154,-1.737 29.513,22.571 39.929,22.571c10.417,0 29.512,6.946 36.458,27.779c5.208,19.096 24.304,45.138 31.25,52.083c6.946,6.946 12.154,27.779 12.154,32.987c0,5.208 -15.625,-1.737 -34.721,-6.946c-17.363,-5.208 -19.096,13.888 -19.096,22.571c0,8.679 -26.042,41.667 -29.512,46.875c-3.471,5.208 8.679,10.417 19.096,12.154c5.208,0 22.571,-12.154 27.779,-12.154c1.738,0 10.417,5.208 17.363,12.154c-1.738,-24.304 3.471,-22.571 24.304,-38.196c20.833,-17.362 24.304,-48.612 43.404,-52.083c19.096,-3.471 27.779,-13.888 55.554,-8.679c27.779,5.208 -13.887,22.571 5.208,32.987c19.096,10.417 78.125,-3.471 81.596,12.154c3.471,15.625 -67.708,31.25 -67.708,38.196c1.738,6.946 38.196,15.625 50.346,24.304c12.154,8.679 -3.471,32.987 1.738,39.929c5.208,6.946 26.042,1.737 41.667,-10.417c15.625,-12.154 27.779,-6.946 48.613,-20.833c20.833,-13.888 62.5,-1.737 67.708,-10.417c5.208,-8.679 -12.154,-17.362 -50.346,-13.888c-38.196,3.471 -41.667,-34.721 -41.667,-41.667c0,-6.946 39.929,-39.929 62.5,-41.667c22.571,-1.737 41.667,-8.679 64.238,-19.096c8.679,-3.471 24.304,-8.679 41.667,-12.154c0,-1.737 -3.471,-15.625 3.471,-15.625l0.004,-0.017Z" style="fill:#d1d1d1;fill-rule:nonzero;stroke:#000;stroke-width:5.21px;"/><path d="M2843.958,1449.021c-8.679,-1.737 -13.887,-22.571 -29.512,-29.513c-13.888,-5.208 -10.417,-24.304 -22.571,-32.987c-12.154,-8.679 -5.208,-24.304 -5.208,-36.458c-1.738,-12.154 1.738,-32.987 -5.208,-36.458c-6.946,-3.471 -34.721,-19.096 -46.875,-13.888c-12.154,5.208 -20.833,10.417 -26.042,0c-5.208,-10.417 -13.887,-15.625 -26.042,-12.154c-12.154,3.471 -20.833,-1.737 -26.042,-8.679c-1.738,-1.737 -1.738,-1.737 -1.738,-3.471c-5.208,1.737 -12.154,3.471 -15.625,6.946c-6.946,6.946 -8.679,19.096 -19.096,19.096c-10.417,0 -22.571,-5.208 -34.721,5.208c-12.154,8.679 -15.625,19.096 -13.887,27.779c1.738,6.946 3.471,19.096 -5.208,19.096c-8.679,0 -6.946,10.417 -15.625,13.888c-8.679,3.471 -24.304,17.362 -26.042,24.304c-1.738,6.946 -1.738,24.304 -6.946,24.304c-5.208,0 -26.042,3.471 -32.988,10.417c-5.208,6.946 -13.887,15.625 -26.042,12.154c-6.946,-1.737 -22.571,-1.737 -36.458,-3.471l0,5.208c-5.208,15.625 -1.738,31.25 6.946,39.929c8.679,8.679 12.154,39.929 1.738,45.138c-10.417,5.208 -29.512,19.096 -29.512,26.042c0,6.946 20.833,15.625 17.363,26.042c-1.738,6.946 -1.738,19.096 -1.738,27.779c8.679,0 19.096,1.737 26.042,-6.946c8.679,-8.679 13.887,-19.096 32.988,-19.096c19.096,0 78.125,0 86.804,10.417c8.679,10.417 32.987,1.737 46.875,6.946c13.887,6.946 32.987,12.154 34.721,5.208c1.738,-6.946 19.096,10.417 32.988,3.471c13.887,-6.946 26.042,15.625 32.988,10.417c6.946,-5.208 38.196,-5.208 46.875,3.471c6.946,6.946 8.679,-6.946 8.679,-17.362c0,-10.417 29.512,-32.987 29.512,-32.987c0,0 20.833,-1.737 32.988,-6.946c-3.471,-3.471 -5.208,-10.417 -6.946,-20.833c-5.208,-26.042 -13.887,-39.929 -6.946,-48.612c6.946,-8.679 26.042,10.417 36.458,5.208c10.417,-5.208 27.779,-13.888 26.042,-24.304c-6.946,-6.946 -24.304,-20.833 -32.988,-24.304l0,0.004Z" style="fill:#bdbdbd;fill-rule:nonzero;stroke:#000;stroke-width:5.21px;"/><path d="M2408.192,1264.992c13.887,0 45.137,6.946 64.237,0c17.363,-6.946 17.363,13.888 29.513,12.154c12.154,-1.737 34.721,13.888 46.875,26.042c6.946,6.946 15.625,10.417 26.042,17.362c1.738,-3.471 5.208,-6.946 10.417,-10.417c12.154,-8.679 24.304,-5.208 34.721,-5.208c10.417,0 12.154,-12.154 19.096,-19.096c3.471,-3.471 10.417,-5.208 15.625,-6.946c-3.471,-8.679 -3.471,-24.304 -10.417,-31.25c-6.946,-8.679 -19.096,-22.571 -15.625,-29.513c3.471,-8.679 3.471,-19.096 -5.208,-29.513c-3.471,-3.471 -6.946,-8.679 -8.679,-13.888c-17.362,-1.737 -41.667,-5.208 -48.612,-3.471c-8.679,3.471 -45.138,-26.042 -50.346,-31.25c-3.471,-3.471 -29.512,-1.737 -53.821,0c-13.887,15.625 -3.471,27.779 -5.208,52.083c0,24.304 -26.042,19.096 -41.667,19.096c-13.887,0 -36.458,-43.404 -45.137,-53.821c-6.946,-10.417 -31.25,12.154 -48.613,22.571c-17.363,10.417 -8.679,31.25 -20.833,41.667c-12.154,10.417 -19.096,26.042 -6.946,48.612c0,1.737 0,1.737 1.738,3.471c15.625,-1.737 31.25,-3.471 39.929,-10.417c15.625,-10.417 59.029,1.737 72.917,1.737l0.004,-0.008Z" style="fill:#a9a9a9;fill-rule:nonzero;stroke:#000;stroke-width:5.21px;"/><path d="M2323.125,1348.325c5.208,8.679 22.571,15.625 29.512,12.154c6.946,-3.471 27.779,8.679 27.779,17.362c0,8.679 -5.208,36.458 0,36.458c5.208,0 36.458,10.417 39.929,24.304c13.887,0 31.25,1.737 36.458,3.471c12.154,3.471 19.096,-5.208 26.042,-12.154c5.208,-6.946 26.042,-10.417 32.988,-10.417c6.946,0 5.208,-17.362 6.946,-24.304c1.738,-6.946 15.625,-20.833 26.042,-24.304c10.417,-3.471 6.946,-13.888 15.625,-13.888c8.679,0 6.946,-12.154 5.208,-19.096c-1.738,-5.208 0,-10.417 3.471,-15.625c-8.679,-5.208 -17.363,-10.417 -26.042,-17.362c-13.887,-12.154 -36.458,-27.779 -46.875,-26.042c-12.154,1.737 -12.154,-19.096 -29.512,-12.154c-17.363,6.946 -50.346,0 -64.238,0c-13.888,0 -57.292,-12.154 -72.917,0c-8.679,6.946 -24.304,8.679 -39.929,10.417c10.417,20.833 6.946,43.404 -5.208,55.554c-8.679,8.679 -3.471,10.417 1.738,13.888c13.887,-1.737 27.779,-5.208 32.988,1.737l-0.004,0Z" style="fill:#818181;fill-rule:nonzero;stroke:#000;stroke-width:5.21px;"/><path d="M1765.833,1928.188c-10.417,5.208 -26.042,-8.679 -26.042,-13.888c0,-3.471 -1.737,-13.888 0,-22.571c-8.679,-5.208 -20.833,-10.417 -29.513,-13.888c-15.625,-5.208 -22.571,-5.208 -34.721,1.737c-6.946,3.471 -27.779,3.471 -43.404,1.737c-1.737,5.208 -3.471,6.946 -6.946,6.946c-10.417,0 -22.571,10.417 -26.042,22.571c-3.471,12.154 -26.042,20.833 -32.987,41.667c-6.946,20.833 -3.471,29.513 6.946,17.362c10.417,-12.154 22.571,-8.679 22.571,1.737c0,10.417 13.888,12.154 8.679,26.042c15.625,-1.737 36.458,-3.471 43.404,-3.471c10.417,0 20.833,-32.987 26.042,-36.458c5.208,-3.471 15.625,24.304 27.779,34.721c12.154,10.417 13.888,-8.679 13.888,-19.096c0,-8.679 10.417,-12.154 17.362,-10.417c6.946,1.737 24.304,5.208 24.304,-6.946c0,-10.417 8.679,-6.946 15.625,-6.946c5.208,0 6.946,-12.154 6.946,-12.154l10.417,-8.679c-6.946,-1.737 -17.362,-3.471 -24.304,0l-0.004,-0.008Z" style="fill:#a9a9a9;fill-rule:nonzero;stroke:#000;stroke-width:5.21px;"/><path d="M1616.525,1516.729c-12.154,19.096 -27.779,19.096 -26.042,24.304c3.471,5.208 20.833,19.096 15.625,27.779c-5.208,6.946 -10.417,3.471 -10.417,17.362c0,13.888 -20.833,13.888 -27.779,13.888c-6.946,0 1.737,13.888 -3.471,24.304c-5.208,10.417 -5.208,32.987 -5.208,41.667c-1.737,8.679 15.625,24.304 13.888,32.987c-1.737,6.946 -13.888,13.888 -10.417,19.096c3.471,5.208 13.888,13.888 15.625,43.404c5.208,1.737 8.679,3.471 10.417,6.946c6.946,8.679 17.362,15.625 32.987,15.625c15.625,0 20.833,10.417 26.042,8.679c6.946,-1.737 24.304,5.208 10.417,17.362c-13.888,12.154 -17.362,27.779 -20.833,41.667c-1.737,10.417 -1.737,22.571 -5.208,31.25c13.888,1.737 34.721,1.737 43.404,-1.737c12.154,-6.946 19.096,-6.946 34.721,-1.737c8.679,3.471 20.833,8.679 29.513,13.888c1.737,-3.471 1.737,-5.208 5.208,-5.208c10.417,-1.737 22.571,19.096 29.513,8.679c6.946,-10.417 22.571,-8.679 29.513,-5.208c6.946,5.208 20.833,6.946 29.513,-1.737c8.679,-8.679 43.404,-13.888 52.083,-10.417c6.946,3.471 27.779,12.154 20.833,-15.625c-6.946,-27.779 17.362,-22.571 20.833,-32.987c3.471,-10.417 32.987,-15.625 27.779,-22.571c-5.208,-6.946 -41.667,-32.987 -52.083,-39.929c-10.417,-6.946 -10.417,-32.987 -17.362,-43.404c-5.208,-10.417 -17.362,-24.304 -3.471,-27.779c13.888,-3.471 39.929,-8.679 52.083,-20.833c12.154,-12.154 34.721,-12.154 41.667,-19.096c6.946,-6.946 22.571,5.208 26.042,-1.737c5.208,-6.946 6.946,-20.833 1.737,-29.513c-5.208,-8.679 -10.417,-22.571 -12.154,-41.667c-1.737,-19.096 -6.946,-19.096 -6.946,-27.779c0,-8.679 -3.471,-20.833 -10.417,-26.042c-6.946,-5.208 -10.417,-8.679 -3.471,-20.833c6.946,-12.154 5.208,-45.138 1.737,-53.821l0,-6.946c-1.737,-1.737 -3.471,-3.471 -3.471,-6.946c-1.737,-12.154 -10.417,-17.362 -29.513,-17.362c-19.096,0 12.154,-19.096 5.208,-29.513c-6.946,-10.417 -26.042,19.096 -45.138,12.154c-17.362,-6.946 -41.667,20.833 -57.292,32.987c-15.625,12.154 -38.196,-1.737 -26.042,-19.096c12.154,-17.362 0,-15.625 -17.362,-8.679c-17.362,6.946 -39.929,-1.737 -36.458,-19.096c0,-3.471 0,-8.679 -3.471,-12.154c-8.679,1.737 -15.625,1.737 -19.096,0c-8.679,-3.471 -26.042,-3.471 -45.138,-5.208c5.208,8.679 12.154,17.362 8.679,24.304c-6.946,13.888 3.471,26.042 13.888,45.138c10.417,19.096 -20.833,8.679 -20.833,20.833c0,12.154 -27.779,0 -36.458,-5.208c-8.679,-5.208 -38.196,-1.737 -38.196,6.946c0,3.471 0,6.946 -1.737,10.417c-1.737,17.362 0,31.25 -3.471,38.196l0,0.008Z" style="fill:#e6e6e6;fill-rule:nonzero;stroke:#000;stroke-width:5.21px;"/><path d="M2741.525,850.062c12.154,-27.779 65.971,-48.612 74.654,-72.917c5.208,-12.154 5.208,-19.096 -13.888,-41.667c-19.096,-22.571 -62.5,-38.196 -64.237,-50.346c-1.738,-12.154 32.987,-13.887 31.25,-29.513c-1.738,-15.625 -19.096,-15.625 -26.042,-27.779c-6.946,-12.154 8.679,-19.096 6.946,-26.042c-1.738,-6.946 -24.304,-8.679 -26.042,-17.362c-1.737,-6.946 15.625,-6.946 12.154,-15.625c-3.471,-8.679 -17.363,-26.042 -6.946,-39.929c10.417,-13.888 32.988,0 15.625,-31.25c-15.625,-31.25 -41.667,-69.446 -46.875,-78.125c-5.208,-8.679 5.208,-24.304 15.625,-31.25c8.679,-6.946 31.25,-29.512 31.25,-38.196c0,-8.679 -27.779,-32.988 -36.458,-38.196c-6.946,-5.208 -24.304,-3.471 -31.25,-19.096c-6.946,-15.625 -15.625,-19.096 -6.946,-29.512c6.946,-8.679 6.946,-19.096 6.946,-27.779c0,-8.679 15.625,-1.738 19.096,-15.625c1.738,-6.946 5.208,-13.887 10.417,-19.096c0,-10.417 1.737,-22.571 0,-29.512c-1.738,-15.625 -43.404,-19.096 -52.083,-36.458c-10.417,-17.363 -32.988,-10.417 -39.929,0c-6.946,10.417 -50.346,-1.738 -50.346,12.154c0,13.887 -31.25,17.363 -31.25,34.721c0,17.363 13.887,46.875 -8.679,45.137c-24.304,-1.737 -6.946,10.417 -20.833,29.512c-13.887,19.096 -13.887,-12.154 -29.512,-6.946c-13.887,5.208 -31.25,-13.887 -38.196,-1.738c-6.946,12.154 -31.25,1.738 -55.554,-1.738c-24.304,-5.208 -36.458,-39.929 -55.554,-41.667c-12.154,-1.738 -26.042,8.679 -32.988,26.042c19.096,12.154 31.25,29.512 55.554,41.667c26.042,12.154 74.654,27.779 71.179,45.137c-1.738,17.363 -10.417,41.667 1.738,48.613c12.154,6.946 -1.738,39.929 12.154,46.875c13.887,6.946 8.679,45.137 -1.738,45.137c-12.154,0 1.738,19.096 10.417,27.779c3.471,3.471 5.208,13.887 6.946,26.042c13.887,3.471 27.779,12.154 39.929,17.362c20.833,8.679 17.363,24.304 17.363,39.929c0,15.625 1.738,26.042 -8.679,19.096c-10.417,-6.946 -20.833,0 -27.779,22.571c-5.208,22.571 -34.721,50.346 -52.083,52.083c-17.363,1.738 -15.625,19.096 -29.512,24.304c-13.887,5.208 -27.779,12.154 -26.042,27.779c1.738,15.625 -20.833,17.362 -34.721,17.362c-13.887,0 -10.417,26.042 -22.571,32.988c-12.154,6.946 -8.679,15.625 1.738,29.512c10.417,13.888 1.738,26.042 5.208,36.458c3.471,10.417 20.833,32.988 8.679,59.029c-10.417,26.042 -22.571,57.292 -13.887,53.821c10.417,-3.471 31.25,20.833 46.875,19.096c15.625,-1.737 15.625,20.833 31.25,17.363c13.887,-5.208 13.887,13.887 55.554,12.154c41.667,-1.738 123.262,-36.458 156.25,-36.458c19.096,0 32.987,-1.738 45.137,-5.208c6.946,-10.417 15.625,-22.571 24.304,-31.25c19.096,-27.779 64.238,-41.667 76.387,-69.446l-0.004,0Z" style="fill:#d1d1d1;fill-rule:nonzero;stroke:#000;stroke-width:5.21px;"/><path d="M1647.775,1791.033c-1.499,0.168 -12.154,-8.679 -26.042,-8.679c-13.888,0 -26.042,-6.946 -32.987,-15.625c-6.946,-8.679 -41.667,-12.154 -52.083,-8.679c-10.417,1.737 -13.888,-19.096 -26.042,-17.362c-10.417,1.737 -13.888,-15.625 -13.888,-24.304c0,-8.679 -12.154,6.946 -22.571,12.154c-10.417,5.208 -13.888,-10.417 -13.888,-17.362c-1.737,-6.946 -20.833,-13.888 -31.25,-19.096c-10.417,-5.208 -20.833,-24.304 -26.042,-15.625c-5.208,8.679 -17.362,-12.154 -17.362,-19.096c0,-5.208 -3.471,-3.471 -6.946,-6.946c-3.471,0 -6.946,1.737 -12.154,1.737c-17.362,0 -32.987,13.888 -31.25,45.138c3.471,31.25 -20.833,32.987 -52.083,36.458c-31.25,3.471 -20.833,26.042 -32.987,36.458c-12.154,10.417 -57.292,-5.208 -62.5,-22.571c-5.208,-17.362 -46.875,0 -29.513,19.096c17.362,19.096 15.625,46.875 6.946,55.554c-10.417,6.946 -31.25,-12.154 -43.404,-1.737c-13.888,10.417 -13.888,-8.679 -31.25,-15.625c-15.625,-6.946 -22.571,6.946 -48.613,5.208c-26.042,-1.737 -41.667,13.888 -31.25,24.304c10.417,12.154 -1.738,22.571 5.208,32.987c6.946,10.417 41.667,8.679 67.708,22.571c26.042,13.888 31.25,1.737 43.404,12.154c12.154,10.417 15.625,3.471 15.625,22.571c0,19.096 15.625,38.196 39.929,45.138c24.304,6.946 5.208,24.304 13.888,39.929c6.946,17.362 -10.417,41.667 -6.946,62.5c3.471,20.833 -12.154,86.804 -24.304,93.75l-3.471,0c10.417,5.208 22.571,10.417 27.779,13.887c10.417,6.946 34.721,15.625 48.612,24.304c13.888,8.679 39.929,6.946 39.929,-3.471c0,-10.417 13.888,-3.471 24.304,5.208c8.679,8.679 43.404,10.417 59.029,15.625c13.888,3.471 32.987,1.738 52.083,1.738c0,-3.471 -1.737,-8.679 -3.471,-13.887c-8.679,-29.512 17.362,-46.875 41.667,-52.083c24.304,-3.471 78.125,12.154 92.013,20.833c13.888,8.679 32.987,6.946 57.292,-19.096c12.154,-13.887 22.571,-19.096 31.25,-20.833c0,-5.208 3.471,-12.154 5.208,-17.363c3.471,-8.679 -12.154,-6.946 -22.571,-8.679c-10.417,-1.737 -19.096,-12.154 -10.417,-26.042c6.946,-12.154 -6.946,-13.888 -13.888,-26.042c-6.946,-12.154 3.471,-8.679 10.417,-12.154c6.946,-3.471 15.625,-17.362 10.417,-20.833c-5.208,-3.471 -10.417,-12.154 -5.208,-26.042c5.208,-13.888 -8.679,-15.625 -8.679,-26.042c0,-10.417 -12.154,-15.625 -22.571,-1.737c-10.417,12.154 -13.888,3.471 -6.946,-17.362c6.946,-20.833 29.513,-29.513 32.987,-41.667c3.471,-12.154 15.625,-22.571 26.042,-22.571c10.417,0 6.946,-24.304 10.417,-39.929c3.471,-15.625 5.208,-29.513 20.833,-41.667c15.625,-13.888 -3.471,-20.833 -10.417,-19.096l0.004,-0Zm79.863,390.625c-8.679,0 -10.417,13.887 -31.25,27.779c-20.833,13.887 0,71.179 20.833,69.446c22.571,-5.208 19.096,-97.221 10.417,-97.221l0,-0.004Z" style="fill:#959595;fill-rule:nonzero;stroke:#000;stroke-width:5.21px;"/><path d="M1416.875,2218.117c-17.362,0 -38.196,1.738 -52.083,-1.738c-15.625,-3.471 -50.346,-5.208 -59.029,-15.625c-8.679,-8.679 -24.304,-17.363 -24.304,-5.208c0,10.417 -26.042,13.887 -39.929,3.471c-13.888,-8.679 -38.196,-17.363 -48.612,-24.304c-5.208,-3.471 -17.362,-8.679 -27.779,-13.887c-15.625,3.471 -59.029,-13.887 -86.804,-10.417c-31.25,3.471 -128.471,-5.208 -164.929,-1.738c-38.196,3.471 -39.929,-15.625 -60.763,-15.625c-20.833,0 -12.154,26.042 -41.667,26.042c-29.513,0 -32.988,19.096 -10.417,38.196c12.154,10.417 10.417,31.25 8.679,50.346c6.946,0 10.417,-1.738 13.888,-5.208c8.679,-10.417 17.362,-8.679 17.362,1.738c0,10.417 19.096,6.946 31.25,6.946c12.154,0 6.946,8.679 19.096,0c12.154,-8.679 31.25,-5.208 31.25,5.208c0,10.417 27.779,5.208 12.154,20.833c-13.888,15.625 -32.988,19.096 -32.988,29.512c0,10.417 15.625,34.721 3.471,48.613c-12.154,13.887 3.471,34.721 -8.679,34.721c-12.154,0 -27.779,5.208 -12.154,20.833c13.887,15.625 26.042,27.779 13.887,27.779c-10.417,0 -17.362,22.571 -12.154,27.779c5.208,5.208 31.25,22.571 10.417,26.042c-19.096,3.471 -19.096,20.833 -19.096,31.25c0,3.471 3.471,10.417 6.946,17.363c8.679,-1.738 19.096,-1.738 26.042,1.738c20.833,10.417 32.987,62.5 60.763,59.029c12.154,-1.738 5.208,-10.417 12.154,-17.363c5.208,-6.946 17.363,-1.738 29.513,-1.738c12.154,0 17.363,-17.363 46.875,-19.096c27.779,0 46.875,-3.471 64.237,-1.738c17.362,0 31.25,-5.208 36.458,-19.096c5.208,-13.887 19.096,-24.304 39.929,-27.779c20.833,-3.471 17.362,-24.304 19.096,-36.458c1.737,-12.154 34.721,-31.25 36.458,-39.929c1.737,-8.679 -19.096,-45.138 0,-76.388c20.833,-31.25 41.667,-32.987 41.667,-50.346c0,-15.625 20.833,-22.571 46.875,-26.042c26.042,-3.471 32.987,-20.833 55.554,-29.512c13.888,-1.738 20.833,-15.625 17.362,-38.196l0.004,-0.008Zm3.471,168.404c-3.471,-26.042 -55.554,8.679 -43.404,15.625c22.571,13.887 46.875,10.417 43.404,-15.625Z" style="fill:#d1d1d1;fill-rule:nonzero;stroke:#000;stroke-width:5.21px;"/><path d="M1901.25,2014.992c12.154,-5.208 26.042,-6.946 31.25,-3.471c5.208,1.737 6.946,8.679 8.679,15.625c10.417,-1.737 29.513,-5.208 34.721,-6.946c8.679,-3.471 29.513,8.679 31.25,1.737c1.737,-6.946 8.679,-22.571 17.362,-22.571c8.679,0 3.471,-24.304 12.154,-26.042c8.679,-1.737 31.25,-22.571 31.25,-22.571c0,0 -8.679,-19.096 -12.154,-19.096c-3.471,-1.737 -13.888,12.154 -34.721,12.154c-20.833,0 -34.721,15.625 -43.404,15.625c-8.679,0 -36.458,-8.679 -55.554,-10.417c-6.946,0 -13.888,-1.737 -20.833,-1.737c0,15.625 -1.737,41.667 0,67.708Z" style="fill:#595959;fill-rule:nonzero;stroke:#000;stroke-width:5.21px;"/><path d="M2562.708,2258.05c-10.417,1.738 -26.042,5.208 -24.304,12.154c3.471,6.946 -6.946,12.154 -19.096,12.154c0,0 -41.667,-3.471 -53.821,-8.679c-8.679,-5.208 -48.613,-1.738 -67.708,0c0,0 0,1.738 -1.738,1.738c-5.208,6.946 -39.929,26.042 -46.875,22.571c-6.946,-3.471 -10.417,12.154 -22.571,15.625c-12.154,3.471 -32.988,-1.737 -34.721,5.208c-1.738,6.946 -10.417,22.571 -17.363,29.512c-6.946,6.946 -1.738,17.363 -12.154,19.096c-6.946,1.738 -10.417,15.625 -13.887,27.779l1.738,1.738c15.625,5.208 29.512,26.042 26.042,45.137c-1.738,19.096 24.304,26.042 36.458,12.154c12.154,-13.888 45.137,6.946 45.137,17.362c0,8.679 -34.721,-10.417 -53.821,5.208c-19.096,13.887 15.625,27.779 10.417,43.404c-5.208,15.625 8.679,36.458 26.042,36.458c17.363,0 36.458,27.779 46.875,22.571c10.417,-5.208 -12.154,-45.137 -8.679,-52.083c3.471,-6.946 24.304,10.417 34.721,-1.738c10.417,-12.154 -6.946,-20.833 -22.571,-20.833c-15.625,0 0,-20.833 17.363,-10.417c19.096,12.154 27.779,-3.471 36.458,-5.208c8.679,-1.738 10.417,-34.721 -15.625,-41.667c-27.779,-6.946 -24.304,20.833 -41.667,1.738c-17.363,-19.096 15.625,-12.154 15.625,-27.779c0,-15.625 -27.779,-39.929 -41.667,-59.029c-13.888,-19.096 19.096,-27.779 26.042,-13.887c6.946,13.887 27.779,12.154 39.929,6.946c12.154,-5.208 -13.887,-29.512 10.417,-39.929c22.571,-8.679 22.571,6.946 31.25,10.417c6.946,3.471 13.887,-19.096 38.196,-19.096c12.154,0 22.571,8.679 34.721,17.363c6.946,-6.946 12.154,-12.154 12.154,-17.363c0,-8.679 13.887,-12.154 13.887,-24.304c0,-10.417 -3.471,-17.362 -5.208,-24.304l0.004,-0.017Zm-41.667,385.417c-12.154,-6.946 -65.971,5.208 -79.863,-8.679c-13.887,-13.887 -43.404,10.417 -31.25,12.154c17.363,3.471 45.138,19.096 72.917,19.096c29.512,0 67.708,-13.887 67.708,-20.833c1.738,-6.946 -17.362,5.208 -29.512,-1.738Z" style="fill:#6d6d6d;fill-rule:nonzero;stroke:#000;stroke-width:5.21px;"/><path d="M2929.025,2666.033c-1.738,-8.679 10.417,-26.042 26.042,-32.988c17.363,-6.946 10.417,-19.096 0,-10.417c-10.417,10.417 -38.196,20.833 -71.179,22.571c-32.988,1.738 -43.404,24.304 -22.571,36.458c26.042,15.625 69.446,-6.946 67.708,-15.625Z" style="fill:#e6e6e6;fill-rule:nonzero;stroke:#000;stroke-width:5.21px;"/><path d="M482.846,648.675c29.512,-1.737 27.779,-34.721 39.929,-32.987c12.154,1.737 31.25,-22.571 38.196,-38.196c6.946,-15.625 -8.679,-43.404 -26.042,-43.404c-17.363,0 -31.25,-13.888 -27.779,-26.042c3.471,-10.417 -10.417,-24.304 -8.679,-32.988c0,-6.946 -22.571,0 -34.721,1.738c-12.154,3.471 -36.458,-29.512 -48.613,-24.304c-10.417,6.946 -3.471,22.571 -5.208,31.25c-3.471,8.679 -29.512,-8.679 -29.512,1.738c0,10.417 -10.417,12.154 -20.833,0c-10.417,-12.154 -29.513,-5.208 -29.513,5.208c0,8.679 -8.679,1.738 -26.042,-8.679c-17.363,-10.417 -34.721,12.154 -32.988,24.304c1.738,12.154 -5.208,13.887 -20.833,-10.417c-13.887,-26.042 -31.25,1.738 -22.571,15.625c6.946,13.887 5.208,31.25 -6.946,24.304c-10.417,-6.946 -26.042,5.208 -32.988,15.625c-6.946,10.417 -31.25,-31.25 -13.887,-41.667c17.362,-10.417 -53.821,-52.083 -76.388,-52.083c-22.571,0 -6.946,17.363 6.946,29.512c15.625,12.154 -10.417,8.679 -19.096,-1.738c-8.679,-10.417 -24.304,-1.738 -32.988,13.887c-8.679,15.625 -24.304,24.304 -26.042,34.721c-1.738,10.417 26.042,22.571 48.612,12.154c22.571,-10.417 48.613,-12.154 60.763,0c12.154,12.154 -20.833,15.625 -10.417,26.042c12.154,8.679 1.738,17.363 -26.042,13.888c-27.779,-1.738 -62.5,6.946 -57.292,15.625c5.208,10.417 72.917,-8.679 72.917,1.737c0,10.417 0,26.042 17.363,19.096c17.363,-6.946 5.208,13.887 15.625,17.362c8.679,3.471 6.946,22.571 -17.363,24.304c-24.304,1.737 -34.721,6.946 -26.042,17.362c12.154,13.888 38.196,3.471 64.238,-1.737c26.042,-6.946 62.5,26.042 92.012,38.196c29.512,12.154 81.596,-5.208 86.804,-20.833c5.208,-15.625 46.875,-10.417 62.5,-20.833c15.625,-10.417 45.137,-26.042 72.917,-27.779l0,0.008Z" style="fill:#bdbdbd;fill-rule:nonzero;stroke:#000;stroke-width:5.21px;"/><path d="M925.554,1438.604c-6.946,-5.208 -12.154,-10.417 -17.363,-15.625c-19.096,-22.571 -27.779,-5.208 -29.512,8.679c-1.738,13.888 -20.833,-5.208 -31.25,-6.946c-10.417,-1.737 3.471,-24.304 10.417,-29.513c5.208,-3.471 10.417,-13.888 13.888,-29.513c-1.738,0 -3.471,0 -6.946,-1.737c-20.833,-8.679 -50.346,-8.679 -50.346,10.417c0,19.096 22.571,12.154 24.304,24.304c0,12.154 -24.304,8.679 -41.667,20.833c-17.363,12.154 -36.458,-8.679 -53.821,0c-17.363,8.679 19.096,19.096 5.208,39.929c-13.887,19.096 0,19.096 22.571,36.458c22.571,17.362 -13.888,22.571 -13.888,43.404c0,20.833 -27.779,19.096 -32.988,32.987c-5.208,13.888 24.304,41.667 50.346,41.667c19.096,0 62.5,-12.154 86.804,-36.458c26.042,-24.304 38.196,0 62.5,-13.888c22.571,-12.154 8.679,-102.429 0,-119.792c1.737,0 1.737,-1.737 1.737,-5.208l0.004,0Z" style="fill:#595959;fill-rule:nonzero;stroke:#000;stroke-width:5.21px;"/><g><path d="M935.971,1355.271c-19.096,-19.096 -43.404,10.417 -62.5,10.417c-3.471,15.625 -8.679,26.042 -13.887,29.513c-8.679,5.208 -22.571,27.779 -10.417,29.513c10.417,1.737 29.513,20.833 31.25,6.946c1.738,-13.888 10.417,-32.987 29.513,-8.679c5.208,5.208 10.417,10.417 17.362,15.625c3.471,-10.417 26.042,-12.154 38.196,-24.304c13.888,-15.625 -8.679,-38.196 -29.512,-59.029l-0.004,0Zm407.988,190.971c1.737,-22.571 -46.875,-39.929 -52.083,-26.042c-5.208,12.154 -15.625,10.417 -24.304,-3.471c-8.679,-13.888 6.946,-26.042 0,-27.779c-8.679,-1.737 -19.096,-20.833 -15.625,-27.779c1.737,-6.946 -12.154,-57.292 -38.196,-62.5c-26.042,-6.946 -29.513,-43.404 -32.987,-62.5c-5.208,-19.096 -20.833,-8.679 -32.987,-26.042c-12.154,-17.362 -34.721,-8.679 -45.138,-6.946c-10.417,0 0,-20.833 17.362,-32.987c17.362,-12.154 38.196,-78.125 38.196,-90.279c0,-13.888 -78.125,-12.154 -93.75,-5.208c-15.625,6.946 -29.513,-12.154 -17.363,-17.362c12.154,-5.208 39.929,-32.987 38.196,-43.404c-1.737,-10.417 19.096,-20.833 6.946,-31.25c-10.417,-10.417 -12.154,13.888 -22.571,20.833c-10.417,6.946 -31.25,5.208 -53.821,0c-22.571,-5.208 -31.25,29.513 -31.25,43.404c0,13.888 -26.042,22.571 -22.571,34.721c5.208,12.154 -5.208,20.833 -12.154,13.888c-6.946,-6.946 -15.625,-24.304 -31.25,-12.154c-15.625,12.154 17.362,27.779 36.458,31.25c19.096,1.737 -15.625,17.362 -19.096,38.196c-3.471,20.833 26.042,12.154 26.042,27.779c1.737,15.625 -41.667,17.362 -41.667,32.987c0,13.888 24.304,-6.946 36.458,-12.154c10.417,-6.946 -5.208,36.458 20.833,31.25c26.042,-5.208 19.096,-41.667 29.512,-39.929c10.417,1.737 -5.208,19.096 3.471,36.458c8.679,15.625 -19.096,39.929 -17.362,52.083c1.737,12.154 55.554,12.154 72.917,-6.946c17.362,-19.096 26.042,1.737 13.888,15.625c-12.154,13.888 -6.946,26.042 8.679,32.987c15.625,5.208 20.833,6.946 13.888,19.096c-6.946,12.154 0,34.721 -5.208,46.875c-3.471,12.154 -50.346,10.417 -52.083,1.737c-1.737,-6.946 -20.833,-1.737 -15.625,8.679c5.208,10.417 -15.625,22.571 -15.625,32.987c1.737,10.417 29.512,6.946 29.512,19.096c0,12.154 -20.833,26.042 -48.612,34.721c-27.779,8.679 5.208,31.25 19.096,20.833c13.888,-10.417 10.417,6.946 29.513,6.946c19.096,0 31.25,15.625 52.083,6.946c20.833,-8.679 20.833,0 5.208,12.154c-15.625,13.888 -41.667,0 -55.554,6.946c-15.625,8.679 -74.654,65.971 -64.237,81.596c6.946,8.679 15.625,-12.154 36.458,-20.833c20.833,-8.679 26.042,6.946 36.458,6.946c12.154,1.737 12.154,-26.042 22.571,-22.571c10.417,1.737 19.096,-8.679 36.458,-5.208c17.362,3.471 31.25,-3.471 39.929,-12.154c8.679,-6.946 32.987,15.625 39.929,10.417c6.946,-5.208 39.929,-12.154 57.292,-10.417c15.625,0 59.029,-19.096 69.446,-29.513c10.417,-10.417 -6.946,-12.154 -20.833,-10.417c-15.625,1.737 -12.154,-15.625 3.471,-31.25c15.625,-15.625 39.929,-27.779 41.667,-50.346l0.017,0.004Zm-447.917,-385.417c20.833,0 43.404,-36.458 32.988,-45.138c-8.679,-10.417 -46.875,46.875 -32.988,45.138Z" style="fill:#6d6d6d;fill-rule:nonzero;stroke:#000;stroke-width:5.21px;"/></g><g><path d="M935.971,1355.271c-19.096,-19.096 -43.404,10.417 -62.5,10.417c-3.471,15.625 -8.679,26.042 -13.887,29.513c-8.679,5.208 -22.571,27.779 -10.417,29.513c10.417,1.737 29.513,20.833 31.25,6.946c1.738,-13.888 10.417,-32.987 29.513,-8.679c5.208,5.208 10.417,10.417 17.362,15.625c3.471,-10.417 26.042,-12.154 38.196,-24.304c13.888,-15.625 -8.679,-38.196 -29.512,-59.029l-0.004,0Zm407.988,190.971c1.737,-22.571 -46.875,-39.929 -52.083,-26.042c-5.208,12.154 -15.625,10.417 -24.304,-3.471c-8.679,-13.888 6.946,-26.042 0,-27.779c-8.679,-1.737 -19.096,-20.833 -15.625,-27.779c1.737,-6.946 -12.154,-57.292 -38.196,-62.5c-26.042,-6.946 -29.513,-43.404 -32.987,-62.5c-5.208,-19.096 -20.833,-8.679 -32.987,-26.042c-12.154,-17.362 -34.721,-8.679 -45.138,-6.946c-10.417,0 0,-20.833 17.362,-32.987c17.362,-12.154 38.196,-78.125 38.196,-90.279c0,-13.888 -78.125,-12.154 -93.75,-5.208c-15.625,6.946 -29.513,-12.154 -17.363,-17.362c12.154,-5.208 39.929,-32.987 38.196,-43.404c-1.737,-10.417 19.096,-20.833 6.946,-31.25c-10.417,-10.417 -12.154,13.888 -22.571,20.833c-10.417,6.946 -31.25,5.208 -53.821,0c-22.571,-5.208 -31.25,29.513 -31.25,43.404c0,13.888 -26.042,22.571 -22.571,34.721c5.208,12.154 -5.208,20.833 -12.154,13.888c-6.946,-6.946 -15.625,-24.304 -31.25,-12.154c-15.625,12.154 17.362,27.779 36.458,31.25c19.096,1.737 -15.625,17.362 -19.096,38.196c-3.471,20.833 26.042,12.154 26.042,27.779c1.737,15.625 -41.667,17.362 -41.667,32.987c0,13.888 24.304,-6.946 36.458,-12.154c10.417,-6.946 -5.208,36.458 20.833,31.25c26.042,-5.208 19.096,-41.667 29.512,-39.929c10.417,1.737 -5.208,19.096 3.471,36.458c8.679,15.625 -19.096,39.929 -17.362,52.083c1.737,12.154 55.554,12.154 72.917,-6.946c17.362,-19.096 26.042,1.737 13.888,15.625c-12.154,13.888 -6.946,26.042 8.679,32.987c15.625,5.208 20.833,6.946 13.888,19.096c-6.946,12.154 0,34.721 -5.208,46.875c-3.471,12.154 -50.346,10.417 -52.083,1.737c-1.737,-6.946 -20.833,-1.737 -15.625,8.679c5.208,10.417 -15.625,22.571 -15.625,32.987c1.737,10.417 29.512,6.946 29.512,19.096c0,12.154 -20.833,26.042 -48.612,34.721c-27.779,8.679 5.208,31.25 19.096,20.833c13.888,-10.417 10.417,6.946 29.513,6.946c19.096,0 31.25,15.625 52.083,6.946c20.833,-8.679 20.833,0 5.208,12.154c-15.625,13.888 -41.667,0 -55.554,6.946c-15.625,8.679 -74.654,65.971 -64.237,81.596c6.946,8.679 15.625,-12.154 36.458,-20.833c20.833,-8.679 26.042,6.946 36.458,6.946c12.154,1.737 12.154,-26.042 22.571,-22.571c10.417,1.737 19.096,-8.679 36.458,-5.208c17.362,3.471 31.25,-3.471 39.929,-12.154c8.679,-6.946 32.987,15.625 39.929,10.417c6.946,-5.208 39.929,-12.154 57.292,-10.417c15.625,0 59.029,-19.096 69.446,-29.513c10.417,-10.417 -6.946,-12.154 -20.833,-10.417c-15.625,1.737 -12.154,-15.625 3.471,-31.25c15.625,-15.625 39.929,-27.779 41.667,-50.346l0.017,0.004Zm-447.917,-385.417c20.833,0 43.404,-36.458 32.988,-45.138c-8.679,-10.417 -46.875,46.875 -32.988,45.138Z" style="fill:none;fill-rule:nonzero;stroke:#000;stroke-width:5.21px;"/></g><path d="M1777.983,1251.104c-6.946,-3.471 -10.417,-27.779 -1.737,-36.458c8.679,-6.946 12.154,-36.458 5.208,-45.138c-6.946,-6.946 -34.721,0 -36.458,20.833c-1.737,20.833 -24.304,12.154 -29.513,15.625c-5.208,5.208 12.154,13.888 1.737,22.571c-10.417,8.679 -13.888,-13.888 -29.513,-15.625c-15.625,-1.737 -17.362,24.304 -26.042,38.196c-8.679,13.888 -3.471,39.929 0,59.029c3.471,19.096 24.304,29.513 19.096,45.138c-1.737,6.946 1.737,15.625 6.946,22.571c19.096,0 38.196,1.737 45.138,5.208c3.471,1.737 10.417,0 19.096,0c-6.946,-10.417 -20.833,-19.096 -20.833,-27.779c1.737,-10.417 15.625,-3.471 26.042,5.208c10.417,8.679 32.987,10.417 36.458,0c1.737,-6.946 -3.471,-39.929 -17.362,-32.987c-13.888,6.946 -17.362,5.208 -22.571,-3.471c-5.208,-6.946 10.417,-19.096 13.888,-32.987c3.471,-12.154 27.779,-6.946 31.25,-17.362c6.946,-8.679 -13.888,-19.096 -20.833,-22.571l0.004,0Zm112.846,46.875c-5.208,-3.471 -10.417,10.417 -17.362,12.154c-6.946,1.737 -13.888,-29.513 -17.362,-12.154c-3.471,17.362 -17.362,-6.946 -32.987,13.888c-15.625,20.833 8.679,39.929 19.096,46.875c10.417,6.946 0,17.362 -13.888,13.888c-13.888,-3.471 -5.208,19.096 13.888,22.571c19.096,3.471 38.196,-32.987 36.458,-43.404c-1.737,-10.417 19.096,-50.346 12.154,-53.821l0.004,0.004Z" style="fill:#595959;fill-rule:nonzero;stroke:#000;stroke-width:5.21px;"/><path d="M2439.442,482.008c-6.946,-6.946 -20.833,-27.779 -10.417,-27.779c12.154,0 17.363,-36.458 1.738,-45.137c-13.887,-6.946 0,-39.929 -12.154,-46.875c-12.154,-6.946 -5.208,-31.25 -1.738,-48.613c1.738,-17.363 -45.137,-31.25 -71.179,-45.137c-26.042,-12.154 -38.196,-31.25 -59.029,-45.137c-20.833,-12.154 -29.512,19.096 -29.512,39.929c0,19.096 -19.096,22.571 -32.988,10.417c-13.887,-12.154 -31.25,0 -52.083,-10.417c-20.833,-10.417 -12.154,22.571 -12.154,36.458c0,15.625 -24.304,15.625 -38.196,15.625c-13.887,0 -38.196,12.154 -38.196,29.512c0,17.363 -20.833,27.779 -13.887,36.458c6.946,10.417 -1.738,19.096 -12.154,27.779c-8.679,6.946 -19.096,31.25 -26.042,39.929c-6.946,6.946 5.208,19.096 -8.679,29.512c-13.888,10.417 -31.25,1.738 -38.196,10.417c-6.946,6.946 0,24.304 -1.737,46.875c-1.737,22.571 -19.096,46.875 -32.987,65.971c-13.888,19.096 5.208,24.304 12.154,27.779c6.946,1.738 6.946,15.625 0,29.513c-6.946,15.625 -24.304,5.208 -32.987,1.737c-8.679,-1.737 -36.458,10.417 -50.346,34.721c-13.888,24.304 -10.417,39.929 -5.208,52.083c5.208,12.154 -12.154,27.779 0,52.083c12.154,24.304 -5.208,29.513 -1.737,48.613c1.737,19.096 31.25,17.362 32.987,36.458c1.737,19.096 -10.417,27.779 -19.096,27.779c-10.417,0 -6.946,19.096 1.737,24.304c8.679,5.208 6.946,39.929 1.737,48.612c-5.208,10.417 -36.458,0 -32.987,12.154c1.737,12.154 -6.946,31.25 -6.946,41.667c0,10.417 -1.737,41.667 -12.154,34.721c-3.471,-3.471 -10.417,-3.471 -15.625,-1.737l0,5.208c0,19.096 5.208,38.196 22.571,52.083c15.625,13.888 3.471,34.721 17.362,53.821c13.888,19.096 10.417,32.987 26.042,46.875c15.625,13.888 17.362,20.833 10.417,39.929c-6.946,19.096 13.888,12.154 13.888,24.304c0,10.417 -5.208,32.987 0,43.404c5.208,10.417 15.625,0 39.929,0c24.304,0 17.362,-15.625 19.096,-31.25c0,-13.888 12.154,-6.946 15.625,-17.362c3.471,-8.679 24.304,-12.154 41.667,-3.471c17.362,6.946 26.042,-5.208 29.513,-24.304c3.471,-19.096 12.154,3.471 17.362,6.946c5.208,3.471 20.833,-27.779 27.779,-48.612c6.946,-20.833 0,-17.362 -17.363,3.471c-17.362,19.096 -6.946,-19.096 0,-36.458c6.946,-17.362 5.208,-62.5 8.679,-72.917c1.738,-10.417 6.946,-26.042 27.779,-31.25c20.833,-5.208 50.346,-32.987 45.137,-43.404c-5.208,-10.417 29.512,-31.25 29.512,-41.667c0,-10.417 -36.458,-46.875 -46.875,-53.821c-12.154,-6.946 -38.196,-1.738 -36.458,-10.417c1.737,-8.679 -3.471,-41.667 -5.208,-59.029c-3.471,-17.362 19.096,-34.721 19.096,-50.346c0,-15.625 0,-34.721 13.888,-39.929c13.887,-5.208 5.208,-19.096 24.304,-24.304c19.096,-5.208 15.625,-32.987 34.721,-39.929c20.833,-8.679 20.833,-15.625 46.875,-27.779c26.042,-13.888 69.446,-43.404 78.125,-59.029c6.946,-15.625 -26.042,-32.988 -5.208,-50.346c20.833,-17.363 3.471,-36.458 19.096,-41.667c15.625,-6.946 20.833,-13.887 32.988,-26.042c12.154,-12.154 26.042,0 52.083,-5.208c10.417,-1.738 19.096,0 27.779,1.738c-5.208,-15.625 -8.679,-26.042 -12.154,-29.512l0.017,-0Zm-250,675.346c-27.779,0 -41.667,57.292 -34.721,67.708c5.208,6.946 62.5,-69.446 34.721,-67.708Z" style="fill:#bdbdbd;fill-rule:nonzero;stroke:#000;stroke-width:5.21px;"/><path d="M2630.417,1058.396c6.946,-13.887 22.571,-15.625 10.417,-34.721c-1.738,1.738 -5.208,3.471 -10.417,5.208c-20.833,6.946 -67.708,-15.625 -95.488,-10.417c-27.779,5.208 -81.596,5.208 -93.75,19.096c-12.154,13.888 -45.137,17.362 -31.25,29.513c13.888,12.154 0,19.096 10.417,32.987c10.417,13.888 15.625,20.833 29.512,17.362c13.887,-3.471 26.042,5.208 10.417,20.833c24.304,-1.737 50.346,-3.471 53.821,0c5.208,5.208 41.667,32.987 50.346,31.25c5.208,-1.737 29.512,0 48.612,3.471c-1.737,-5.208 -1.737,-10.417 1.738,-13.888c6.946,-5.208 20.833,-5.208 13.887,-17.362c-6.946,-12.154 -10.417,-13.888 -10.417,-27.779c0,-13.888 -5.208,-20.833 -3.471,-29.513c1.738,-8.679 8.679,-10.417 15.625,-26.042Zm-263.887,38.196c-26.042,6.946 -31.25,45.138 -20.833,45.138c13.888,0 43.404,-26.042 52.083,-34.721c8.679,-8.679 -5.208,-19.096 -31.25,-10.417Zm22.571,-22.571c5.208,-12.154 -43.404,-6.946 -31.25,3.471c6.946,8.679 24.304,8.679 31.25,-3.471Z" style="fill:#959595;fill-rule:nonzero;stroke:#000;stroke-width:5.21px;"/><path d="M1988.054,2482.008c-31.25,6.946 -43.404,8.679 -60.763,0c-17.362,-8.679 -46.875,8.679 -41.667,20.833c3.471,8.679 15.625,19.096 52.083,29.513c36.458,10.417 41.667,36.458 57.292,36.458c15.625,0 17.362,-13.887 13.888,-34.721c-3.471,-20.833 19.096,-45.137 20.833,-48.612c0,-5.208 -12.154,-10.417 -41.667,-3.471Zm-288.196,-173.613c-15.625,13.887 -29.513,-1.738 -36.458,8.679c-8.679,13.887 26.042,36.458 19.096,65.971c-6.946,29.512 3.471,67.708 20.833,50.346c17.362,-17.363 26.042,-8.679 34.721,-22.571c10.417,-12.154 1.737,-60.762 8.679,-85.071c6.946,-24.304 -31.25,-32.988 -46.875,-17.363l0.004,0.008Zm364.583,-24.304c-19.096,-12.154 -6.946,-32.987 -36.458,-31.25c-31.25,1.738 -67.708,-38.196 -78.125,-83.333c-10.417,-45.138 -59.029,-46.875 -71.179,-74.654c-12.154,-26.042 10.417,-29.513 0,-52.083c-5.208,-12.154 6.946,-22.571 22.571,-29.513c-1.737,-24.304 0,-52.083 3.471,-69.446c-12.154,-1.737 -22.571,-3.471 -26.042,-5.208c-5.208,-3.471 -6.946,-22.571 -10.417,-22.571c-3.471,0 -34.721,0 -39.929,5.208c-5.208,5.208 -22.571,15.625 -31.25,10.417c-1.737,-1.737 -3.471,-1.737 -6.946,-3.471l-10.417,8.679c0,0 -1.737,12.154 -6.946,12.154c-5.208,0 -15.625,-5.208 -15.625,6.946c0,10.417 -15.625,6.946 -24.304,6.946c-6.946,-1.737 -17.362,1.737 -17.362,10.417c0,8.679 -1.737,29.513 -13.888,19.096c-12.154,-10.417 -24.304,-38.196 -27.779,-34.721c-5.208,3.471 -15.625,36.458 -26.042,36.458c-6.946,0 -27.779,1.737 -43.404,3.471c-3.471,13.888 0,20.833 5.208,24.304c5.208,3.471 -3.471,17.362 -10.417,20.833c-6.946,3.471 -17.362,0 -10.417,12.154c6.946,12.154 22.571,13.887 13.888,26.042c-6.946,12.154 0,24.304 10.417,26.042c10.417,1.738 26.042,-1.737 22.571,8.679c-1.737,5.208 -5.208,12.154 -5.208,17.363c8.679,-3.471 17.362,-3.471 24.304,-6.946c15.625,-8.679 8.679,-22.571 34.721,-31.25c26.042,-6.946 60.763,13.887 71.179,31.25c10.417,17.362 13.888,17.362 15.625,31.25c1.737,12.154 12.154,39.929 46.875,62.5c36.458,24.304 50.346,50.346 67.708,60.762c19.096,10.417 36.458,6.946 48.612,20.833c10.417,13.887 26.042,20.833 43.404,29.512c17.362,8.679 19.096,27.779 36.458,31.25c17.362,1.738 5.208,17.363 15.625,31.25c10.417,13.888 13.888,39.929 1.737,55.554c-10.417,15.625 -5.208,41.667 1.737,41.667c6.946,0 22.571,-27.779 26.042,-43.404c3.471,-15.625 17.362,-13.887 29.512,-31.25c12.154,-15.625 -17.362,-19.096 -22.571,-39.929c-5.208,-20.833 22.571,-39.929 48.613,-22.571c26.042,17.363 36.458,27.779 38.196,1.738c6.946,-24.304 -74.654,-59.029 -93.75,-71.179l0,0.004Z" style="fill:#6d6d6d;fill-rule:nonzero;stroke:#000;stroke-width:5.21px;"/><path d="M2185.971,2157.354c-10.417,13.887 -20.833,32.987 -19.096,38.196c0,3.471 0,8.679 -1.738,15.625c13.887,10.417 26.042,22.571 34.721,27.779c1.738,0 1.738,1.738 3.471,1.738c3.471,-17.363 13.887,-34.721 22.571,-36.458c-12.154,-15.625 -29.512,-34.721 -39.929,-46.875l0,-0.004Z" style="fill:#595959;fill-rule:nonzero;stroke:#000;stroke-width:5.21px;"/><path d="M2361.317,2145.2c-10.417,-10.417 -10.417,-29.512 0,-36.458c10.417,-6.946 1.737,-15.625 1.737,-27.779c0,-12.154 -48.612,-15.625 -55.554,-17.362c-6.946,-1.738 5.208,-32.987 -6.946,-32.987c-12.154,0 -17.362,-8.679 -17.362,-19.096c0,-10.417 -19.096,-24.304 -17.363,-29.513c0,0 -5.409,-1.665 -3.672,-1.665c-6.946,-1.737 -6.745,-1.81 -8.478,-1.81c-8.679,-1.737 -20.833,-6.946 -20.833,-6.946c0,0 -31.25,10.417 -52.083,17.362c1.738,13.888 5.208,27.779 13.887,31.25c15.625,6.946 10.417,22.571 15.625,36.458c5.208,13.887 3.471,79.862 -3.471,79.862c-3.471,0 -10.417,8.679 -19.096,19.096c10.417,12.154 27.779,31.25 39.929,46.875l1.738,0c10.417,0 46.875,27.779 46.875,27.779c0,0 52.083,-10.417 86.804,-15.625c0,-5.208 1.738,-12.154 1.738,-15.625c-1.738,-6.946 6.946,-20.833 17.363,-20.833c10.417,0 -8.679,-22.571 -20.833,-32.988l-0.004,0.004Z" style="fill:#818181;fill-rule:nonzero;stroke:#000;stroke-width:5.21px;"/><g><g><clipPath id="_clip1"><rect x="1506.158" y="5.167" width="1301.204" height="1135.75"/></clipPath><g clip-path="url(#_clip1)"><path d="M2768.825,155.433c-3.471,12.154 -22.575,8.679 -22.575,-1.738c0,-12.154 -31.254,-20.838 -32.992,-26.046c-1.738,-5.208 13.887,-5.208 26.046,1.738c12.154,6.946 20.838,1.738 32.992,-10.417c13.887,-13.888 31.254,-1.738 34.725,-13.888c3.471,-12.154 -20.838,-19.1 -26.046,-26.046c-5.208,-6.946 -20.837,-15.629 -38.2,-12.154c-15.629,3.471 -17.367,-3.471 -26.046,-13.888c-10.417,-8.679 -39.933,6.946 -39.933,27.783c0,20.838 -19.1,15.629 -12.154,5.208c6.946,-10.417 -8.679,-26.046 5.208,-29.517c15.629,-3.471 6.946,-26.046 -20.838,-29.517c-27.783,-1.737 -38.2,20.838 -31.254,29.517c6.946,6.946 -19.1,39.933 -29.517,39.933c-10.417,0 1.738,-27.783 0,-43.413c0,-15.629 -10.417,-6.946 -31.254,17.367c-20.837,24.308 -36.462,46.883 -48.621,48.621c-12.154,1.738 -10.417,-22.575 8.679,-32.992c19.1,-10.417 20.838,-39.933 32.992,-39.933c12.154,0 12.154,-15.629 -5.208,-19.1c-19.1,-5.208 -20.837,17.367 -27.783,22.575c-5.208,6.946 -36.463,-10.417 -36.463,-5.208c0,6.946 -15.629,8.679 -8.679,19.1c6.946,12.154 -3.471,20.837 -10.417,6.946c-6.946,-13.887 -26.046,-3.471 -34.725,12.154c-8.679,15.629 -20.838,13.887 -12.154,19.1c8.679,5.208 8.679,26.046 -5.208,29.517c-13.887,3.471 -8.679,-38.2 -19.1,-32.992c-10.417,3.471 -3.471,-19.1 10.417,-19.1c13.887,0 27.783,-20.837 26.046,-26.046c-1.738,-8.679 -17.367,-6.946 -17.367,5.208c0,12.154 -22.575,8.679 -41.671,8.679c-19.1,0 -17.367,22.575 3.471,34.725c20.837,12.154 -3.471,19.1 -13.888,10.417c-10.417,-8.679 -26.046,-5.208 -38.2,0c-10.417,5.208 26.046,19.1 27.783,26.046c1.738,6.946 -19.1,-8.679 -24.308,-3.471c-5.208,5.208 -26.046,-3.471 -26.046,-17.367c-1.738,-13.887 -34.725,5.208 -15.629,10.417c19.1,5.208 12.154,17.367 12.154,32.992c0,15.629 -20.838,3.471 -17.367,-10.417c5.208,-13.888 -13.887,-12.154 -27.783,-1.738c-15.629,8.679 1.738,-17.367 -3.471,-29.517c-5.208,-12.154 -19.1,0 -34.725,3.471c-15.629,3.471 -24.308,3.471 -13.887,13.888c10.417,10.417 8.679,26.046 -5.208,24.308c-12.154,-1.738 -17.367,0 -15.629,12.154c1.738,12.154 -15.629,12.154 -17.367,1.738c-1.738,-10.417 -26.046,-6.946 -34.725,5.208c-6.946,12.154 -27.783,20.837 -26.046,34.725c1.738,13.887 19.1,-6.946 31.254,-1.738c12.154,5.208 0,12.154 6.946,19.1c6.946,6.946 5.208,24.308 -5.208,13.887c-10.417,-10.417 -24.308,-13.887 -26.046,3.471c-1.737,15.629 -13.887,-1.738 -22.575,-13.888c-8.679,-12.154 -17.367,20.838 -27.783,13.888c-10.417,-6.946 19.1,-31.254 12.154,-43.412c-6.946,-12.154 -12.154,6.946 -29.517,24.308c-17.367,17.367 -39.933,17.367 -31.254,26.046c8.679,8.679 -17.367,13.888 -20.837,27.783c-5.208,13.887 -39.933,19.1 -62.508,34.725c-22.575,15.629 5.208,15.629 17.367,1.737c12.154,-13.887 17.367,-6.946 36.462,-19.1c20.837,-12.154 41.671,-24.308 48.621,-19.1c6.946,5.208 20.838,8.679 29.517,-5.208c10.417,-13.887 20.837,-10.417 31.254,-1.737c10.417,8.679 -15.629,15.629 -5.208,27.783c12.154,12.154 -13.888,19.1 -13.888,8.679c0,-10.417 -15.629,-19.1 -20.837,-10.417c-5.208,10.417 -13.888,20.837 -24.308,20.837c-10.417,0 -20.837,19.1 -20.837,38.2c0,19.1 -17.367,0 -19.1,15.629c-1.737,15.629 -26.046,45.146 -46.883,64.246c-20.837,20.838 -1.737,26.046 -8.679,38.2c-6.946,13.887 -31.254,1.738 -39.933,6.946c-8.679,5.208 5.208,38.2 -6.946,46.883c-10.417,10.417 0,24.308 0,34.725c0,10.417 -29.517,-6.946 -31.254,5.208c-1.737,12.154 -27.783,8.679 -34.725,12.154c-6.946,3.471 15.629,20.838 27.783,32.992c12.154,12.154 -12.154,19.1 -15.629,6.946c-3.471,-12.154 -20.838,6.946 -45.146,19.1c-22.575,10.417 -13.888,32.992 -31.254,32.992c-17.367,0 -12.154,29.517 -24.308,39.933c-12.154,8.679 -8.679,-20.837 -27.783,-22.575c-19.1,0 -17.367,12.154 -5.208,29.517c12.154,17.367 -17.367,3.471 -27.783,17.367c-10.417,13.888 -39.933,6.946 -48.621,19.1c-8.679,12.154 22.575,12.154 26.046,20.837c3.471,8.679 -26.046,5.208 -43.412,0c-15.629,-3.471 -12.154,20.838 -26.046,19.1c-15.629,-3.471 -32.992,13.888 -22.575,24.308c10.417,10.417 -8.679,12.154 -19.1,5.208c-10.417,-6.946 -19.1,10.417 -22.575,22.575c-3.471,13.888 20.838,19.1 19.1,26.046c0,6.946 -19.1,15.629 -5.208,19.1c13.888,3.471 3.471,15.629 -5.208,19.1c-8.679,3.471 -8.679,13.888 0,24.308c8.679,10.417 -15.629,13.888 -3.471,31.254c12.154,17.367 20.837,-5.208 26.046,8.679c5.208,13.887 19.1,1.737 36.462,-13.888c15.629,-15.629 22.575,17.367 8.679,15.629c-13.888,0 -29.517,6.946 -26.046,20.837c3.471,13.888 -20.838,12.154 -20.838,-5.208c0,-17.367 -27.783,3.471 -17.367,15.629c10.417,12.154 -3.471,19.1 -3.471,31.254c0,12.154 20.837,8.679 27.783,-3.471c8.679,-12.154 20.837,-10.417 26.046,3.471c5.208,12.154 -12.154,3.471 -12.154,20.838c0,17.367 -10.417,1.737 -20.838,15.629c-10.417,13.888 38.2,39.933 52.092,43.412c15.629,3.471 29.517,20.837 59.037,15.629c29.517,-5.208 86.817,-60.771 93.762,-71.187c6.946,-10.417 24.308,1.737 34.725,-6.946c10.417,-8.679 5.208,-32.992 12.154,-38.2c8.679,-5.208 12.154,26.046 20.837,27.783c6.946,3.471 12.154,8.679 12.154,24.308c5.208,0 12.154,0 15.629,1.737c8.679,6.946 12.154,-24.308 12.154,-34.725c0,-10.417 8.679,-29.517 6.946,-41.671c-1.737,-12.154 29.517,-1.737 32.992,-12.154c5.208,-10.417 6.946,-45.146 -1.737,-48.621c-8.679,-5.208 -12.154,-24.308 -1.737,-24.308c10.417,0 20.837,-6.946 19.1,-27.783c-1.737,-19.1 -31.254,-17.367 -32.992,-36.462c-1.737,-19.1 13.888,-24.308 1.737,-48.621c-12.154,-24.308 5.208,-39.933 0,-52.092c-5.208,-12.154 -8.679,-27.783 5.208,-52.092c13.888,-24.308 39.933,-36.463 50.354,-34.725c8.679,1.737 26.046,12.154 32.992,-1.738c6.946,-13.887 6.946,-27.783 0,-29.517c-6.946,-1.737 -26.046,-6.946 -12.154,-27.783c13.888,-19.1 31.254,-45.146 32.992,-65.979c1.737,-22.575 -5.208,-39.933 1.737,-46.883c6.946,-6.946 24.308,0 38.2,-10.417c13.888,-10.417 1.737,-22.575 8.679,-29.517c6.946,-6.946 17.367,-31.254 26.046,-39.933c8.679,-6.946 19.1,-17.367 12.154,-27.783c-6.946,-10.417 13.887,-19.1 13.887,-36.462c0,-17.367 24.308,-29.517 38.2,-29.517c13.888,0 38.2,0 38.2,-15.629c0,-13.887 -10.417,-46.883 12.154,-36.463c20.838,10.417 38.2,-1.738 52.092,10.417c13.887,12.154 32.992,10.417 32.992,-10.417c0,-19.1 6.946,-52.092 29.517,-39.933c1.738,1.738 3.471,1.738 5.208,3.471c6.946,-15.629 20.838,-26.046 32.992,-26.046c19.1,1.738 31.254,36.463 55.562,41.671c24.308,5.208 48.621,15.629 55.563,1.738c6.946,-12.154 24.308,6.946 38.2,1.738c13.887,-5.208 13.887,27.783 29.517,6.946c13.887,-19.1 -1.738,-31.254 20.838,-29.517c24.308,1.738 8.679,-27.783 8.679,-45.146c0,-17.367 31.254,-19.1 31.254,-34.725c0,-15.629 43.412,-1.738 50.354,-12.154c6.946,-10.417 31.254,-17.367 39.933,0c8.679,17.367 50.354,22.575 52.092,36.462c1.737,6.946 0,19.1 0,29.517c6.946,-6.946 15.629,-12.154 22.575,-12.154c15.629,0 27.783,-22.575 41.671,-19.1c10.417,1.738 22.575,0 26.046,-19.1c-1.738,-3.471 -26.046,-5.208 -27.783,5.208l-0.008,-0.004l0.025,-0.012Z" style="fill:#959595;fill-rule:nonzero;stroke:#000;stroke-width:5.21px;"/></g></g></g><circle cx="328.723" cy="587.065" r="11.899"/><circle cx="1178.858" cy="1515.916" r="11.899"/><circle cx="841.71" cy="1474.26" r="11.899"/><circle cx="1707.588" cy="865.521" r="11.899"/><circle cx="1771.066" cy="1637.98" r="11.899"/><circle cx="1559.111" cy="1734.613" r="11.899"/><circle cx="1370.825" cy="1899.864" r="11.899"/><circle cx="1664.455" cy="1923.987" r="11.899"/><circle cx="1983.437" cy="1884.534" r="11.899"/><circle cx="1995.336" cy="1729.772" r="11.899"/><circle cx="2209.424" cy="1562.973" r="11.899"/><circle cx="2201.607" cy="1806.336" r="11.899"/><circle cx="2206.951" cy="1914.778" r="11.899"/><circle cx="2282.958" cy="2121.147" r="11.899"/><circle cx="2317.474" cy="2266.729" r="11.899"/><circle cx="2140.288" cy="2109.248" r="11.899"/><circle cx="2069.785" cy="2007.793" r="11.899"/><circle cx="1972.298" cy="1983.995" r="11.899"/><circle cx="2192.661" cy="2199.023" r="11.899"/><circle cx="2452.178" cy="1968.441" r="11.899"/><circle cx="2668.813" cy="1890.981" r="11.899"/><circle cx="2483.136" cy="2203.974" r="11.899"/><circle cx="2999.514" cy="2424.379" r="11.899"/><circle cx="2896.199" cy="2665.223" r="11.899"/><circle cx="2343.339" cy="2400.581" r="11.899"/><circle cx="2235.707" cy="2309.009" r="11.899"/><circle cx="1860.634" cy="2151.577" r="11.899"/><circle cx="1099.574" cy="2346.433" r="11.899"/><circle cx="832.233" cy="2406.037" r="11.899"/><circle cx="2530.502" cy="1083.43" r="11.899"/><circle cx="2506.704" cy="1217.772" r="11.899"/><circle cx="2440.343" cy="1352.096" r="11.899"/><circle cx="2639.161" cy="1456.25" r="11.899"/><circle cx="2827.24" cy="1758.52" r="11.899"/><circle cx="1527.807" cy="1585.055" r="11.899"/><circle cx="1497.543" cy="1672.787" r="11.899"/><circle cx="1715.965" cy="1293.067" r="11.899"/><circle cx="2064.435" cy="715.96" r="11.899"/><circle cx="2567.408" cy="727.859" r="11.899"/></svg>